<svg width="50" height="52" viewBox="0 0 50 52" fill="none" xmlns="http://www.w3.org/2000/svg">
<rect y="22" width="50" height="30" rx="14" fill="#161657"/>
<path fill-rule="evenodd" clip-rule="evenodd" d="M25 1.90735e-06L12 1.90735e-06C5.37258 1.90735e-06 0 5.37259 0 12L0 38C0 44.6274 5.37258 50 12 50H25L25 1.90735e-06Z" fill="#5050AB"/>
<path fill-rule="evenodd" clip-rule="evenodd" d="M25 1.90735e-06L38 1.90735e-06C44.6274 1.90735e-06 50 5.37259 50 12V38C50 44.6274 44.6274 50 38 50H25L25 1.90735e-06Z" fill="#6E6EBF"/>
<path d="M31.072 37C30.6453 37 30.336 36.904 30.144 36.712C29.9733 36.52 29.888 36.232 29.888 35.848L29.888 16.424C29.888 16.0187 29.9733 15.72 30.144 15.528C30.336 15.336 30.6453 15.24 31.072 15.24L44.384 15.24C44.8107 15.24 45.0987 15.3253 45.248 15.496C45.4187 15.6667 45.504 15.9547 45.504 16.36V17.224C45.504 17.6293 45.4187 17.928 45.248 18.12C45.0987 18.2907 44.8107 18.376 44.384 18.376H33.984V24.552H41.536C41.9627 24.552 42.2613 24.6373 42.432 24.808C42.6027 24.9787 42.688 25.2667 42.688 25.672V26.536C42.688 26.9413 42.6027 27.24 42.432 27.432C42.2613 27.6027 41.9627 27.688 41.536 27.688H33.984V35.848C33.984 36.232 33.888 36.52 33.696 36.712C33.5253 36.904 33.216 37 32.768 37H31.072Z" fill="#0A0047"/>
<path d="M6.072 37C5.64533 37 5.336 36.904 5.144 36.712C4.97333 36.52 4.888 36.232 4.888 35.848L4.888 16.424C4.888 16.0187 4.97333 15.72 5.144 15.528C5.336 15.336 5.64533 15.24 6.072 15.24L19.384 15.24C19.8107 15.24 20.0987 15.3253 20.248 15.496C20.4187 15.6667 20.504 15.9547 20.504 16.36V17.224C20.504 17.6293 20.4187 17.928 20.248 18.12C20.0987 18.2907 19.8107 18.376 19.384 18.376H8.984L8.984 24.552H16.536C16.9627 24.552 17.2613 24.6373 17.432 24.808C17.6027 24.9787 17.688 25.2667 17.688 25.672V26.536C17.688 26.9413 17.6027 27.24 17.432 27.432C17.2613 27.6027 16.9627 27.688 16.536 27.688H8.984V35.848C8.984 36.232 8.888 36.52 8.696 36.712C8.52533 36.904 8.216 37 7.768 37H6.072Z" fill="#EBEBFF"/>
</svg>
