<svg width="50" height="50" viewBox="0 0 50 50" fill="none" xmlns="http://www.w3.org/2000/svg">
<path fill-rule="evenodd" clip-rule="evenodd" d="M25 0H12C5.37258 0 0 5.37258 0 12V38C0 44.6274 5.37258 50 12 50H25V0Z" fill="#5050AB"/>
<path fill-rule="evenodd" clip-rule="evenodd" d="M25 0L38 0C44.6274 0 50 5.37258 50 12V38C50 44.6274 44.6274 50 38 50H25V0Z" fill="#6E6EBF"/>
<path d="M30.072 37C29.6453 37 29.336 36.904 29.144 36.712C28.9733 36.52 28.888 36.232 28.888 35.848V16.424C28.888 16.0187 28.9733 15.72 29.144 15.528C29.336 15.336 29.6453 15.24 30.072 15.24H43.384C43.8107 15.24 44.0987 15.3253 44.248 15.496C44.4187 15.6667 44.504 15.9547 44.504 16.36V17.224C44.504 17.6293 44.4187 17.928 44.248 18.12C44.0987 18.2907 43.8107 18.376 43.384 18.376H32.984V24.552H40.536C40.9627 24.552 41.2613 24.6373 41.432 24.808C41.6027 24.9787 41.688 25.2667 41.688 25.672V26.536C41.688 26.9413 41.6027 27.24 41.432 27.432C41.2613 27.6027 40.9627 27.688 40.536 27.688H32.984V35.848C32.984 36.232 32.888 36.52 32.696 36.712C32.5253 36.904 32.216 37 31.768 37H30.072Z" fill="#0A0047"/>
<path d="M7.072 37C6.64533 37 6.336 36.904 6.144 36.712C5.97333 36.52 5.888 36.232 5.888 35.848V16.424C5.888 16.0187 5.97333 15.72 6.144 15.528C6.336 15.336 6.64533 15.24 7.072 15.24H20.384C20.8107 15.24 21.0987 15.3253 21.248 15.496C21.4187 15.6667 21.504 15.9547 21.504 16.36V17.224C21.504 17.6293 21.4187 17.928 21.248 18.12C21.0987 18.2907 20.8107 18.376 20.384 18.376H9.984V24.552H17.536C17.9627 24.552 18.2613 24.6373 18.432 24.808C18.6027 24.9787 18.688 25.2667 18.688 25.672V26.536C18.688 26.9413 18.6027 27.24 18.432 27.432C18.2613 27.6027 17.9627 27.688 17.536 27.688H9.984V35.848C9.984 36.232 9.888 36.52 9.696 36.712C9.52533 36.904 9.216 37 8.768 37H7.072Z" fill="#EBEBFF"/>
</svg>
